<svg width="18" height="19" viewBox="0 0 18 19" fill="none" xmlns="http://www.w3.org/2000/svg">
<path d="M16.7291 11.1458V7.34375C16.7291 6.50382 16.0482 5.82292 15.2083 5.82292H12.1666M16.7291 11.1458V14.9479C16.7291 15.7879 16.0482 16.4687 15.2083 16.4687H3.04164C2.20171 16.4687 1.52081 15.7878 1.52081 14.9479V11.1458M16.7291 11.1458H12.1666M1.52081 11.1458V7.34375C1.52081 6.50382 2.20171 5.82292 3.04165 5.82292H6.08331M1.52081 11.1458H6.08331M6.08331 11.1458V9.625M6.08331 11.1458V12.6667M6.08331 11.1458H12.1666M12.1666 11.1458V9.625M12.1666 11.1458V12.6667M12.1666 5.82292V4.30208C12.1666 3.46215 11.4857 2.78125 10.6458 2.78125H7.60415C6.76421 2.78125 6.08331 3.46215 6.08331 4.30208V5.82292M12.1666 5.82292H6.08331" stroke="#2B83FF" stroke-width="1.36875" stroke-linecap="round" stroke-linejoin="round"/>
</svg>
